<?xml version="1.0" encoding="UTF-8"?>
<svg width="437px" height="143px" viewBox="0 0 437 143" xmlns="http://www.w3.org/2000/svg" xmlns:xlink="http://www.w3.org/1999/xlink" version="1.1">
 <!-- Generated by Pixelmator Pro 1.3.4 -->
 <path id="path" d="M424.134 27.899 L424.134 117.976" fill="none" stroke="#8c191c" stroke-width="2" stroke-opacity="1" stroke-linejoin="round"/>
 <g id="text">
  <defs>
   <text id="string" transform="matrix(1.0 0.0 0.0 1.0 344.63522338867 17.96340179443)">
    <tspan x="1.04541015625" y="87.0" font-family="LucidaGrande, Lucida Grande" font-size="90" text-decoration="none">R</tspan>
   </text>
  </defs>
  <use id="r" xlink:href="#string" fill="#8c191c" fill-opacity="1" stroke="none"/>
  <defs>
   <text id="string-1" transform="matrix(1.0 0.0 0.0 1.0 319.21676635742 17.96340179443)">
    <tspan x="1.5361328125" y="87.0" font-family="LucidaGrande, Lucida Grande" font-size="90" text-decoration="none">I</tspan>
   </text>
  </defs>
  <use id="i" xlink:href="#string-1" fill="#8c191c" fill-opacity="1" stroke="none"/>
  <defs>
   <text id="string-2" transform="matrix(1.0 0.0 0.0 1.0 249.29440307617 17.96340179443)">
    <tspan x="1.54150390625" y="87.0" font-family="LucidaGrande, Lucida Grande" font-size="90" text-decoration="none">O</tspan>
   </text>
  </defs>
  <use id="o" xlink:href="#string-2" fill="#8c191c" fill-opacity="1" stroke="none"/>
  <defs>
   <text id="string-3" transform="matrix(1.0 0.0 0.0 1.0 182.26705932617 17.96340179443)">
    <tspan x="1.43115234375" y="87.0" font-family="LucidaGrande, Lucida Grande" font-size="90" text-decoration="none">H</tspan>
   </text>
  </defs>
  <use id="h" xlink:href="#string-3" fill="#8c191c" fill-opacity="1" stroke="none"/>
  <defs>
   <text id="string-4" transform="matrix(1.0 0.0 0.0 1.0 120.06295776367 17.96340179443)">
    <tspan x="1.36474609375" y="87.0" font-family="LucidaGrande, Lucida Grande" font-size="90" text-decoration="none">C</tspan>
   </text>
  </defs>
  <use id="c" xlink:href="#string-4" fill="#8c191c" fill-opacity="1" stroke="none"/>
 </g>
 <g id="symbol">
  <path id="path-1" d="M63.156 58.177 C63.156 58.177 48.325 48.877 53.928 41.478 54.237 41.07 89.716 32.794 101.517 58.329 108.218 72.829 98.528 88.406 96.393 89.363 94.263 90.323 93.813 90.423 93.813 90.423 93.813 90.423 104.784 69.991 84.421 59.657 74.845 54.794 63.156 58.177 63.156 58.177" fill="#4e4f53" fill-opacity="1" stroke="none"/>
  <path id="path-2" d="M95.504 54.924 C93.039 49.99 95.044 43.992 99.976 41.528 104.91 39.064 110.91 41.07 113.373 46.001 115.838 50.935 113.835 56.933 108.9 59.398 103.966 61.861 97.969 59.859 95.504 54.924" fill="#4e4f53" fill-opacity="1" stroke="none"/>
  <path id="path-3" d="M74.163 76.693 C74.163 76.693 83.462 61.86 90.861 67.465 91.27 67.774 99.547 103.252 74.008 115.054 59.509 121.754 43.933 112.063 42.974 109.93 42.016 107.8 41.915 107.35 41.915 107.35 41.915 107.35 62.344 118.322 72.681 97.958 77.543 88.381 74.163 76.693 74.163 76.693" fill="#8c191c" fill-opacity="1" stroke="none"/>
  <path id="path-4" d="M77.415 109.041 C82.348 106.577 88.346 108.58 90.81 113.514 93.274 118.447 91.27 124.446 86.338 126.908 81.402 129.375 75.404 127.372 72.941 122.437 70.477 117.503 72.479 111.506 77.415 109.041" fill="#8c191c" fill-opacity="1" stroke="none"/>
  <path id="path-5" d="M55.645 87.698 C55.645 87.698 70.476 96.999 64.874 104.397 64.564 104.805 29.086 113.082 17.284 87.544 10.585 73.045 20.273 57.469 22.408 56.509 24.539 55.553 24.988 55.451 24.988 55.451 24.988 55.451 14.016 75.88 34.379 86.218 43.957 91.083 55.645 87.698 55.645 87.698" fill="#4e4f53" fill-opacity="1" stroke="none"/>
  <path id="path-6" d="M23.295 90.952 C25.762 95.885 23.757 101.885 18.822 104.348 13.89 106.812 7.889 104.806 5.426 99.875 2.962 94.939 4.966 88.941 9.9 86.478 14.834 84.013 20.833 86.016 23.295 90.952" fill="#4e4f53" fill-opacity="1" stroke="none"/>
  <path id="path-7" d="M44.638 69.183 C44.638 69.183 35.338 84.013 27.94 78.412 27.531 78.1 19.256 42.624 44.793 30.821 59.292 24.122 74.868 33.811 75.827 35.945 76.785 38.075 76.887 38.523 76.887 38.523 76.887 38.523 56.457 27.554 46.119 47.918 41.257 57.495 44.638 69.183 44.638 69.183" fill="#8c191c" fill-opacity="1" stroke="none"/>
  <path id="path-8" d="M41.386 36.833 C36.454 39.3 30.455 37.296 27.991 32.362 25.528 27.427 27.531 21.428 32.463 18.964 37.399 16.5 43.397 18.504 45.86 23.438 48.323 28.373 46.322 34.37 41.386 36.833" fill="#8c191c" fill-opacity="1" stroke="none"/>
 </g>
</svg>
