<svg xmlns="http://www.w3.org/2000/svg" xmlns:xlink="http://www.w3.org/1999/xlink"><symbol id="sprite-logo" viewBox="0 0 437 143"><title>logo</title><path d="M424.134 27.899v90.077" fill="none" stroke="#8c191c" stroke-width="2" stroke-linejoin="round"/><defs><text id="a" transform="translate(344.635 17.963)"><tspan x="1.045" y="87" font-family="LucidaGrande, Lucida Grande" font-size="90">R</tspan></text></defs><use xmlns:xlink="http://www.w3.org/1999/xlink" xlink:href="#a" fill="#8c191c"/><defs><text id="b" transform="translate(319.217 17.963)"><tspan x="1.536" y="87" font-family="LucidaGrande, Lucida Grande" font-size="90">I</tspan></text></defs><use xlink:href="#b" fill="#8c191c"/><defs><text id="c" transform="translate(249.294 17.963)"><tspan x="1.542" y="87" font-family="LucidaGrande, Lucida Grande" font-size="90">O</tspan></text></defs><use xlink:href="#c" fill="#8c191c"/><defs><text id="d" transform="translate(182.267 17.963)"><tspan x="1.431" y="87" font-family="LucidaGrande, Lucida Grande" font-size="90">H</tspan></text></defs><use xlink:href="#d" fill="#8c191c"/><defs><text id="e" transform="translate(120.063 17.963)"><tspan x="1.365" y="87" font-family="LucidaGrande, Lucida Grande" font-size="90">C</tspan></text></defs><use xlink:href="#e" fill="#8c191c"/><g><path d="M63.156 58.177s-14.831-9.3-9.228-16.699c.309-.408 35.788-8.684 47.589 16.851 6.701 14.5-2.989 30.077-5.124 31.034-2.13.96-2.58 1.06-2.58 1.06s10.971-20.432-9.392-30.766c-9.576-4.863-21.265-1.48-21.265-1.48" fill="#4e4f53"/><path d="M95.504 54.924c-2.465-4.934-.46-10.932 4.472-13.396 4.934-2.464 10.934-.458 13.397 4.473 2.465 4.934.462 10.932-4.473 13.397-4.934 2.463-10.931.461-13.396-4.474" fill="#4e4f53"/><path d="M74.163 76.693s9.299-14.833 16.698-9.228c.409.309 8.686 35.787-16.853 47.589-14.499 6.7-30.075-2.991-31.034-5.124-.958-2.13-1.059-2.58-1.059-2.58s20.429 10.972 30.766-9.392c4.862-9.577 1.482-21.265 1.482-21.265" fill="#8c191c"/><path d="M77.415 109.041c4.933-2.464 10.931-.461 13.395 4.473 2.464 4.933.46 10.932-4.472 13.394-4.936 2.467-10.934.464-13.397-4.471-2.464-4.934-.462-10.931 4.474-13.396" fill="#8c191c"/><path d="M55.645 87.698s14.831 9.301 9.229 16.699c-.31.408-35.788 8.685-47.59-16.853-6.699-14.499 2.989-30.075 5.124-31.035 2.131-.956 2.58-1.058 2.58-1.058S14.016 75.88 34.379 86.218c9.578 4.865 21.266 1.48 21.266 1.48" fill="#4e4f53"/><path d="M23.295 90.952c2.467 4.933.462 10.933-4.473 13.396-4.932 2.464-10.933.458-13.396-4.473-2.464-4.936-.46-10.934 4.474-13.397 4.934-2.465 10.933-.462 13.395 4.474" fill="#4e4f53"/><path d="M44.638 69.183s-9.3 14.83-16.698 9.229c-.409-.312-8.684-35.788 16.853-47.591 14.499-6.699 30.075 2.99 31.034 5.124.958 2.13 1.06 2.578 1.06 2.578s-20.43-10.969-30.768 9.395c-4.862 9.577-1.481 21.265-1.481 21.265" fill="#8c191c"/><path d="M41.386 36.833c-4.932 2.467-10.931.463-13.395-4.471-2.463-4.935-.46-10.934 4.472-13.398 4.936-2.464 10.934-.46 13.397 4.474 2.463 4.935.462 10.932-4.474 13.395" fill="#8c191c"/></g></symbol></svg>