<svg xmlns="http://www.w3.org/2000/svg" xmlns:xlink="http://www.w3.org/1999/xlink"><symbol id="sprite-logo" viewBox="0 0 744 143"><title>logo</title><path d="M63.156 58.177s-14.831-9.3-9.228-16.699c.309-.408 35.788-8.684 47.589 16.851 6.701 14.5-2.989 30.077-5.124 31.034-2.13.96-2.58 1.06-2.58 1.06s10.971-20.432-9.392-30.766c-9.576-4.863-21.265-1.48-21.265-1.48" fill="#4e4f53"/><path d="M95.504 54.924c-2.465-4.934-.46-10.932 4.472-13.396 4.934-2.464 10.934-.458 13.397 4.473 2.465 4.934.462 10.932-4.473 13.397-4.934 2.463-10.931.461-13.396-4.474" fill="#4e4f53"/><path d="M74.163 76.693s9.299-14.833 16.698-9.228c.409.309 8.686 35.787-16.853 47.589-14.499 6.7-30.075-2.991-31.034-5.124-.958-2.13-1.059-2.58-1.059-2.58s20.429 10.972 30.766-9.392c4.862-9.577 1.482-21.265 1.482-21.265" fill="#8c191c"/><path d="M77.415 109.041c4.933-2.464 10.931-.461 13.395 4.473 2.464 4.933.46 10.932-4.472 13.394-4.936 2.467-10.934.464-13.397-4.471-2.464-4.934-.462-10.931 4.474-13.396" fill="#8c191c"/><path d="M55.645 87.698s14.831 9.301 9.229 16.699c-.31.408-35.788 8.685-47.59-16.853-6.699-14.499 2.989-30.075 5.124-31.035 2.131-.956 2.58-1.058 2.58-1.058S14.016 75.88 34.379 86.218c9.578 4.865 21.266 1.48 21.266 1.48" fill="#4e4f53"/><path d="M23.295 90.952c2.467 4.933.462 10.933-4.473 13.396-4.932 2.464-10.933.458-13.396-4.473-2.464-4.936-.46-10.934 4.474-13.397 4.934-2.465 10.933-.462 13.395 4.474" fill="#4e4f53"/><path d="M44.638 69.183s-9.3 14.83-16.698 9.229c-.409-.312-8.684-35.788 16.853-47.591 14.499-6.699 30.075 2.99 31.034 5.124.958 2.13 1.06 2.578 1.06 2.578s-20.43-10.969-30.768 9.395c-4.862 9.577-1.481 21.265-1.481 21.265" fill="#8c191c"/><path d="M41.386 36.833c-4.932 2.467-10.931.463-13.395-4.471-2.463-4.935-.46-10.934 4.472-13.398 4.936-2.464 10.934-.46 13.397 4.474 2.463 4.935.462 10.932-4.474 13.395" fill="#8c191c"/><defs><text id="a" transform="translate(120.509 17.963)"><tspan x="1.419" y="87" font-family="LucidaGrande, Lucida Grande" font-size="90">C</tspan> <tspan x="63.689" y="87" font-family="LucidaGrande, Lucida Grande" font-size="90">H</tspan> <tspan x="129.827" y="87" font-family="LucidaGrande, Lucida Grande" font-size="90">O</tspan> <tspan x="199.744" y="87" font-family="LucidaGrande, Lucida Grande" font-size="90">I</tspan> <tspan x="225.672" y="87" font-family="LucidaGrande, Lucida Grande" font-size="90">R</tspan></text></defs><use xmlns:xlink="http://www.w3.org/1999/xlink" xlink:href="#a" fill="#8c191c"/><path d="M399.134 27.899v90.077" fill="#8c191c"/><path d="M424.134 27.899v90.077" fill="none" stroke="#8c191c" stroke-width="2" stroke-linejoin="round"/><defs><text id="b" transform="translate(436.855 24.916)"><tspan x="1.878" y="26" font-family="LucidaGrande, Lucida Grande" font-size="27">C</tspan> <tspan x="20.559" y="26" font-family="LucidaGrande, Lucida Grande" font-size="27">o</tspan> <tspan x="37.144" y="26" font-family="LucidaGrande, Lucida Grande" font-size="27">l</tspan> <tspan x="44.949" y="26" font-family="LucidaGrande, Lucida Grande" font-size="27">l</tspan> <tspan x="52.754" y="26" font-family="LucidaGrande, Lucida Grande" font-size="27">a</tspan> <tspan x="67.664" y="26" font-family="LucidaGrande, Lucida Grande" font-size="27">b</tspan> <tspan x="84.658" y="26" font-family="LucidaGrande, Lucida Grande" font-size="27">o</tspan> <tspan x="101.243" y="26" font-family="LucidaGrande, Lucida Grande" font-size="27">r</tspan> <tspan x="112.291" y="26" font-family="LucidaGrande, Lucida Grande" font-size="27">a</tspan> <tspan x="127.201" y="26" font-family="LucidaGrande, Lucida Grande" font-size="27">t</tspan> <tspan x="137.3" y="26" font-family="LucidaGrande, Lucida Grande" font-size="27">i</tspan> <tspan x="145.105" y="26" font-family="LucidaGrande, Lucida Grande" font-size="27">v</tspan> <tspan x="159.079" y="26" font-family="LucidaGrande, Lucida Grande" font-size="27">e</tspan></text></defs><use xlink:href="#b" fill="#4e4f53"/><defs><text id="c" transform="translate(436.79 52.915)"><tspan x="1.944" y="27" font-family="LucidaGrande, Lucida Grande" font-size="27">H</tspan> <tspan x="21.785" y="27" font-family="LucidaGrande, Lucida Grande" font-size="27">e</tspan> <tspan x="36.828" y="27" font-family="LucidaGrande, Lucida Grande" font-size="27">a</tspan> <tspan x="51.738" y="27" font-family="LucidaGrande, Lucida Grande" font-size="27">l</tspan> <tspan x="59.543" y="27" font-family="LucidaGrande, Lucida Grande" font-size="27">t</tspan> <tspan x="69.642" y="27" font-family="LucidaGrande, Lucida Grande" font-size="27">h</tspan> <tspan x="86.398" y="27" font-family=".AlBayanPUA, .Al Bayan PUA" font-size="27"> </tspan> <tspan x="91.798" y="27" font-family="LucidaGrande, Lucida Grande" font-size="27">O</tspan> <tspan x="112.773" y="27" font-family="LucidaGrande, Lucida Grande" font-size="27">u</tspan> <tspan x="129.53" y="27" font-family="LucidaGrande, Lucida Grande" font-size="27">t</tspan> <tspan x="139.628" y="27" font-family="LucidaGrande, Lucida Grande" font-size="27">c</tspan> <tspan x="153.458" y="27" font-family="LucidaGrande, Lucida Grande" font-size="27">o</tspan> <tspan x="170.043" y="27" font-family="LucidaGrande, Lucida Grande" font-size="27">m</tspan> <tspan x="195.25" y="27" font-family="LucidaGrande, Lucida Grande" font-size="27">e</tspan> <tspan x="210.292" y="27" font-family="LucidaGrande, Lucida Grande" font-size="27">s</tspan></text></defs><use xlink:href="#c" fill="#4e4f53"/><defs><text id="d" transform="translate(437.048 81.915)"><tspan x="1.685" y="27" font-family="LucidaGrande, Lucida Grande" font-size="27">I</tspan> <tspan x="9.464" y="27" font-family="LucidaGrande, Lucida Grande" font-size="27">n</tspan> <tspan x="26.22" y="27" font-family="LucidaGrande, Lucida Grande" font-size="27">f</tspan> <tspan x="36.147" y="27" font-family="LucidaGrande, Lucida Grande" font-size="27">o</tspan> <tspan x="52.732" y="27" font-family="LucidaGrande, Lucida Grande" font-size="27">r</tspan> <tspan x="63.78" y="27" font-family="LucidaGrande, Lucida Grande" font-size="27">m</tspan> <tspan x="88.987" y="27" font-family="LucidaGrande, Lucida Grande" font-size="27">a</tspan> <tspan x="103.898" y="27" font-family="LucidaGrande, Lucida Grande" font-size="27">t</tspan> <tspan x="113.997" y="27" font-family="LucidaGrande, Lucida Grande" font-size="27">i</tspan> <tspan x="121.801" y="27" font-family="LucidaGrande, Lucida Grande" font-size="27">o</tspan> <tspan x="138.386" y="27" font-family="LucidaGrande, Lucida Grande" font-size="27">n</tspan> <tspan x="155.143" y="27" font-family=".AlBayanPUA, .Al Bayan PUA" font-size="27"> </tspan> <tspan x="160.543" y="27" font-family="LucidaGrande, Lucida Grande" font-size="27">R</tspan> <tspan x="177.615" y="27" font-family="LucidaGrande, Lucida Grande" font-size="27">e</tspan> <tspan x="192.658" y="27" font-family="LucidaGrande, Lucida Grande" font-size="27">g</tspan> <tspan x="209.493" y="27" font-family="LucidaGrande, Lucida Grande" font-size="27">i</tspan> <tspan x="217.298" y="27" font-family="LucidaGrande, Lucida Grande" font-size="27">s</tspan> <tspan x="231.062" y="27" font-family="LucidaGrande, Lucida Grande" font-size="27">t</tspan> <tspan x="241.16" y="27" font-family="LucidaGrande, Lucida Grande" font-size="27">r</tspan> <tspan x="252.208" y="27" font-family="LucidaGrande, Lucida Grande" font-size="27">y</tspan></text></defs><use xlink:href="#d" fill="#4e4f53"/></symbol></svg>